<svg width="16" height="16" viewBox="0 0 16 16" fill="none" xmlns="http://www.w3.org/2000/svg">
<path d="M3.5 3.5C3.10218 3.5 2.72064 3.65804 2.43934 3.93934C2.15804 4.22064 2 4.60218 2 5V5.75H14V5C14 4.60218 13.842 4.22064 13.5607 3.93934C13.2794 3.65804 12.8978 3.5 12.5 3.5H3.5Z" fill="white"/>
<path fill-rule="evenodd" clip-rule="evenodd" d="M14 7.25H2V11C2 11.3978 2.15804 11.7794 2.43934 12.0607C2.72064 12.342 3.10218 12.5 3.5 12.5H12.5C12.8978 12.5 13.2794 12.342 13.5607 12.0607C13.842 11.7794 14 11.3978 14 11V7.25ZM3.5 10.25C3.5 10.0511 3.57902 9.86032 3.71967 9.71967C3.86032 9.57902 4.05109 9.5 4.25 9.5H5C5.19891 9.5 5.38968 9.57902 5.53033 9.71967C5.67098 9.86032 5.75 10.0511 5.75 10.25C5.75 10.4489 5.67098 10.6397 5.53033 10.7803C5.38968 10.921 5.19891 11 5 11H4.25C4.05109 11 3.86032 10.921 3.71967 10.7803C3.57902 10.6397 3.5 10.4489 3.5 10.25ZM7.25 9.5C7.05109 9.5 6.86032 9.57902 6.71967 9.71967C6.57902 9.86032 6.5 10.0511 6.5 10.25C6.5 10.4489 6.57902 10.6397 6.71967 10.7803C6.86032 10.921 7.05109 11 7.25 11H8C8.19891 11 8.38968 10.921 8.53033 10.7803C8.67098 10.6397 8.75 10.4489 8.75 10.25C8.75 10.0511 8.67098 9.86032 8.53033 9.71967C8.38968 9.57902 8.19891 9.5 8 9.5H7.25Z" fill="white"/>
</svg>
