<svg width="12" height="12" viewBox="0 0 12 12" fill="none" xmlns="http://www.w3.org/2000/svg">
<mask id="mask0_518_22" style="mask-type:alpha" maskUnits="userSpaceOnUse" x="1" y="0" width="10" height="12">
<path fill-rule="evenodd" clip-rule="evenodd" d="M3.5 0.5C3.77614 0.5 4 0.723858 4 1V4.40461C4.0193 4.39764 4.03857 4.39018 4.05769 4.38221C4.19391 4.32545 4.30231 4.25141 4.37519 4.16031C4.4418 4.07705 4.5 3.95401 4.5 3.75V1.25C4.5 0.973858 4.72386 0.75 5 0.75C5.27614 0.75 5.5 0.973858 5.5 1.25V3.75C5.5 4.17099 5.3707 4.5167 5.15606 4.785C4.94769 5.04546 4.68109 5.2058 4.44231 5.30529C4.28662 5.37016 4.13389 5.41291 4 5.44128L4 11C4 11.2761 3.77614 11.5 3.5 11.5C3.22386 11.5 3 11.2761 3 11V5.44128C2.86611 5.41291 2.71338 5.37016 2.55769 5.30529C2.31891 5.2058 2.05231 5.04546 1.84394 4.785C1.6293 4.5167 1.5 4.17099 1.5 3.75V1.25C1.5 0.973858 1.72386 0.75 2 0.75C2.27614 0.75 2.5 0.973858 2.5 1.25V3.75C2.5 3.95401 2.5582 4.07705 2.62481 4.16031C2.69769 4.25141 2.80609 4.32545 2.94231 4.38221C2.96143 4.39018 2.9807 4.39764 3 4.40461V1C3 0.723858 3.22386 0.5 3.5 0.5ZM8.5 4.5C8.77614 4.5 9 4.72386 9 5V11C9 11.2761 8.77614 11.5 8.5 11.5C8.22386 11.5 8 11.2761 8 11V5C8 4.72386 8.22386 4.5 8.5 4.5Z" fill="white"/>
<path d="M10 3C10 4.1045 9.3285 5 8.5 5C7.6715 5 7 4.1045 7 3C7 1.8955 7.6715 1 8.5 1C9.3285 1 10 1.8955 10 3Z" fill="white"/>
<path fill-rule="evenodd" clip-rule="evenodd" d="M7.83932 1.8858C7.6388 2.15318 7.5 2.54547 7.5 3C7.5 3.45453 7.6388 3.84682 7.83932 4.1142C8.03972 4.38142 8.27842 4.5 8.5 4.5C8.72158 4.5 8.96028 4.38142 9.16068 4.1142C9.3612 3.84682 9.5 3.45453 9.5 3C9.5 2.54547 9.3612 2.15318 9.16068 1.8858C8.96028 1.61858 8.72158 1.5 8.5 1.5C8.27842 1.5 8.03972 1.61858 7.83932 1.8858ZM7.0393 1.28582C7.38178 0.829168 7.89308 0.5 8.5 0.5C9.10692 0.5 9.61822 0.829168 9.9607 1.28582C10.303 1.74232 10.5 2.35003 10.5 3C10.5 3.64997 10.303 4.25768 9.9607 4.71418C9.61822 5.17083 9.10692 5.5 8.5 5.5C7.89308 5.5 7.38178 5.17083 7.0393 4.71418C6.69695 4.25768 6.5 3.64997 6.5 3C6.5 2.35003 6.69695 1.74232 7.0393 1.28582Z" fill="white"/>
</mask>
<g mask="url(#mask0_518_22)">
<path d="M0 0L12 0V12H0L0 0Z" fill="#F8F8F8"/>
</g>
</svg>
